HIERARCHY
ROOT Hips
{
    OFFSET 0.0 0.0 0.0
    CHANNELS 6 Xposition Yposition Zposition Zrotation Xrotation Yrotation
    JOINT LeftHipJoint
    {
        OFFSET 0.1 0.0 0.0
        CHANNELS 3 Zrotation Xrotation Yrotation
        JOINT LeftUpLeg
        {
            OFFSET 0.059923551976680756 0.0 0.0
            CHANNELS 3 Zrotation Xrotation Yrotation
            JOINT LeftLeg
            {
                OFFSET 0.0 0.0 -0.22078296542167664
                CHANNELS 3 Zrotation Xrotation Yrotation
                JOINT LeftFoot
                {
                    OFFSET 0.0 0.0 -0.207933247089386
                    CHANNELS 3 Zrotation Xrotation Yrotation
                    End Site
                    {
                        OFFSET 0.0 -0.1 0.0
                    }
                }
            }
        }
    }
    JOINT LowerBack
    {
        OFFSET 0.0 0.0 0.1
        CHANNELS 3 Zrotation Xrotation Yrotation
        JOINT Spine
        {
            OFFSET 0.0 0.0 0.14309698343276978
            CHANNELS 3 Zrotation Xrotation Yrotation
            JOINT Spine1
            {
                OFFSET 0.0 0.0 0.14888370037078857
                CHANNELS 3 Zrotation Xrotation Yrotation
                JOINT LeftShoulder
                {
                    OFFSET 0.1 0.0 0.0
                    CHANNELS 3 Zrotation Xrotation Yrotation
                    JOINT LeftArm
                    {
                        OFFSET 0.08645652234554291 0.0 0.0
                        CHANNELS 3 Zrotation Xrotation Yrotation
                        JOINT LeftForeArm
                        {
                            OFFSET 0.14621427655220032 0.0 0.0
                            CHANNELS 3 Zrotation Xrotation Yrotation
                            JOINT LeftHand
                            {
                                OFFSET 0.1282004714012146 0.0 0.0
                                CHANNELS 3 Zrotation Xrotation Yrotation
                                End Site
                                {
                                    OFFSET 0.1 0.0 0.0
                                }
                            }
                        }
                    }
                }
                JOINT Neck
                {
                    OFFSET 0.0 0.0 0.1
                    CHANNELS 3 Zrotation Xrotation Yrotation
                    JOINT Neck1
                    {
                        OFFSET 0.0 0.0 0.07326579838991165
                        CHANNELS 3 Zrotation Xrotation Yrotation
                        End Site
                        {
                            OFFSET 0.0 0.0 0.06756682693958282
                        }
                    }
                }
                JOINT RightShoulder
                {
                    OFFSET -0.1 0.0 0.0
                    CHANNELS 3 Zrotation Xrotation Yrotation
                    JOINT RightArm
                    {
                        OFFSET -0.08645652234554291 0.0 0.0
                        CHANNELS 3 Zrotation Xrotation Yrotation
                        JOINT RightForeArm
                        {
                            OFFSET -0.14621427655220032 0.0 0.0
                            CHANNELS 3 Zrotation Xrotation Yrotation
                            JOINT RightHand
                            {
                                OFFSET -0.1282004714012146 0.0 0.0
                                CHANNELS 3 Zrotation Xrotation Yrotation
                                End Site
                                {
                                    OFFSET -0.1 0.0 0.0
                                }
                            }
                        }
                    }
                }
            }
        }
    }
    JOINT RightHipJoint
    {
        OFFSET -0.1 0.0 0.0
        CHANNELS 3 Zrotation Xrotation Yrotation
        JOINT RightUpLeg
        {
            OFFSET -0.059923551976680756 0.0 0.0
            CHANNELS 3 Zrotation Xrotation Yrotation
            JOINT RightLeg
            {
                OFFSET 0.0 0.0 -0.22078296542167664
                CHANNELS 3 Zrotation Xrotation Yrotation
                JOINT RightFoot
                {
                    OFFSET 0.0 0.0 -0.207933247089386
                    CHANNELS 3 Zrotation Xrotation Yrotation
                    End Site
                    {
                        OFFSET 0.0 -0.1 0.0
                    }
                }
            }
        }
    }
}
MOTION
Frames: 9
Frame Time: 0.03333333333333333
-0.18793213367462158 0.04767341911792755 -0.001067575067281723 89.05218736358829 9.471376074722125 -94.7932015687965 6.3611093629270335e-15 3.1805546814635168e-15 -3.1805546814635168e-15 1.8807764954494097 -5.862668985604942 -19.156344848188937 -5.332259407525878 14.505506025838653 56.129163926500844 1.7655625192200634e-31 3.1805546814635168e-15 -6.3611093629270335e-15 6.3611093629270335e-15 3.1805546814635168e-15 -3.1805546814635168e-15 -0.005179418530484412 0.16759470771185164 -0.9964672883494511 10.93560968020046 -1.8434532404450322e-06 -1.4429444140848811e-06 -3.1805546814635168e-15 -1.7655625192200634e-31 6.3611093629270335e-15 -23.08011306636737 -22.246655535712836 54.18317354822095 -78.93479723189331 1.5571750558171506e-06 -1.4314511737995987e-06 0.0 0.0 0.0 -3.1805546814635168e-15 -1.7655625192200634e-31 6.3611093629270335e-15 10.056056691517906 14.712894833443181 4.0167648271345175 -3.1805546814635168e-15 -1.7655625192200634e-31 6.3611093629270335e-15 22.804604466430586 -37.81736699149998 -40.41622425542018 96.11872034535374 -1.9687267159943183e-06 -3.282674010931636e-09 -9.939233379573488e-16 3.1805546814635164e-15 -1.5902773407317582e-15 6.3611093629270335e-15 3.1805546814635168e-15 -3.1805546814635168e-15 -1.6037044797888065 -4.455943789388968 7.157442227436259 1.4128243664645177 18.56175661832539 -19.87627338851686 0.0 0.0 0.0
-0.18491502106189728 0.04837263002991676 -0.0012715505436062813 87.63926852323003 -0.8532417301308207 -94.75555976772569 -6.3611093629270335e-15 1.7655625192200634e-31 -3.1805546814635168e-15 1.2466857344539037 -7.458562169824099 -19.965671782274075 -6.778038508113247 17.30601837091159 58.89338706593615 -8.827812596100317e-32 -3.1805546814635168e-15 -3.1805546814635168e-15 -6.3611093629270335e-15 1.7655625192200634e-31 -3.1805546814635168e-15 -0.005250535091481974 0.16424615456118377 -0.48488140518171885 12.218744520008405 -1.4612533414669535e-06 1.687569277762628e-06 -3.1805546814635168e-15 -6.3611093629270335e-15 -3.1805546814635168e-15 -21.70782792359986 -26.58100433101526 51.505393918759175 -86.54237580029867 6.297970309080646e-07 -6.517244612071199e-07 0.0 4.9696166897867443e-17 0.0 -3.1805546814635168e-15 -6.3611093629270335e-15 -3.1805546814635168e-15 1.8220310113679277 15.197460279594658 6.090255760505679 -3.1805546814635168e-15 -6.3611093629270335e-15 -3.1805546814635168e-15 17.68202051311244 -34.540888073091196 -41.907403616890974 107.40138133328874 1.302622412698994e-06 -1.9578529468366523e-06 -9.54166404439055e-15 -6.3611093629270335e-15 -3.1805546814635176e-15 -6.3611093629270335e-15 1.7655625192200634e-31 -3.1805546814635168e-15 -1.0074801933632218 -3.4822732577858084 7.86898014707135 1.806577915478614 20.047970504913398 -20.957880420073167 3.1805546814635164e-15 3.1805546814635164e-15 -8.827812596100317e-32
-0.18180742859840393 0.049159176647663116 -0.0014714808203279972 86.34863906264727 -10.358504226547417 -94.8107414792515 0.0 0.0 -6.361109362927032e-15 0.2787551593209008 -10.88012015905761 -20.30026261768331 -10.820569108223035 26.053785759536467 60.49933745887947 0.0 0.0 0.0 0.0 0.0 -6.361109362927032e-15 -0.006892477279674905 0.24919913309847366 0.06968077041093018 12.112821695213565 -2.7485031972656553e-07 -1.394836908884259e-06 0.0 0.0 3.1805546814635168e-15 -19.187302317727088 -30.67830992412107 46.90725024501128 -93.37813671034597 -3.3983490254640584e-06 9.501602890338388e-08 -3.1805546814635168e-15 7.951386703658792e-16 1.5902773407317584e-15 0.0 0.0 3.1805546814635168e-15 -3.946144615168847 15.216541713720549 8.149249565297369 0.0 0.0 3.1805546814635168e-15 13.503591527706448 -30.789994618970056 -42.83416513500482 120.80975722039379 -2.5955257510434904e-06 -1.2180919049508289e-06 4.770832022195275e-15 0.0 0.0 0.0 0.0 -6.361109362927032e-15 -0.0393740618477366 -2.587189421329732 8.90058027197595 2.5254844307074342 21.52715360669787 -23.68331055777103 -3.1805546814635168e-15 0.0 0.0
-0.17861154675483704 0.051179852336645126 -0.0015376063529402018 85.18994096062193 -18.257093026359897 -94.88479275665735 0.0 0.0 0.0 -0.705544629406039 -13.308350052390347 -20.10804616034456 -14.720879276659982 34.1022982172787 60.55441181497564 -6.3611093629270335e-15 1.7655625192200634e-31 -3.1805546814635168e-15 0.0 0.0 0.0 -0.006853858265596791 0.358015159990987 0.6604974549334397 10.569990910957905 -3.6642037971894936e-07 3.007389470294277e-07 0.0 0.0 -6.361109362927033e-15 -16.159040935255064 -35.68026787911512 41.90716196765321 -96.14563574815784 -3.1772327903988322e-06 4.55138868643105e-07 0.0 0.0 3.1805546814635164e-15 0.0 0.0 -6.361109362927033e-15 -8.155413247512143 15.239489362480128 9.295187454623505 0.0 0.0 -6.361109362927033e-15 14.429104377791997 -25.93006085599296 -41.46756195792375 132.5877536168109 3.506856648869708e-07 -2.223406089922596e-06 4.770832022195275e-15 -3.1805546814635168e-15 -1.5902773407317582e-15 0.0 0.0 0.0 0.932090199328556 -2.4165670104572357 10.138421300807215 3.7587752785211275 24.046077740656138 -27.578827083816403 0.0 0.0 0.0
-0.1754225492477417 0.051787376403808594 -0.0015836211387068033 84.24051300713589 -23.47714982544211 -94.85851477334832 -6.3611093629270335e-15 -6.3611093629270335e-15 3.1805546814635164e-15 -1.5398949629181313 -14.12258965218712 -20.26220888699279 -16.902618568925426 38.45318780001594 59.4787185171914 0.0 0.0 0.0 -6.3611093629270335e-15 -6.3611093629270335e-15 3.1805546814635164e-15 -0.0029277416603558973 0.5267354201612053 1.150326487497828 8.164429256533971 -2.8696417255440235e-06 -1.7818281579007486e-06 0.0 0.0 0.0 -17.849707175924095 -37.63005162954585 35.799345775594354 -94.10720180265096 3.4801026620119716e-06 -1.026834238513713e-06 3.1805546814635168e-15 0.0 0.0 0.0 0.0 0.0 -10.658408335480667 15.554522735672524 10.059472107540223 0.0 0.0 0.0 19.292036881217587 -22.635864263550356 -39.00242257051309 138.36842683761773 3.832089361331635e-06 3.1603339427821686e-06 -7.951386703658792e-16 2.2069531490250793e-32 -3.1805546814635168e-15 -6.3611093629270335e-15 -6.3611093629270335e-15 3.1805546814635164e-15 1.6103287575782066 -2.4155068249789813 10.891931876716072 5.041181597244692 26.297616391947003 -30.436111278984644 3.1805546814635168e-15 0.0 0.0
-0.1727721393108368 0.05055733770132065 -0.0016358296852558851 83.69206880560385 -25.997238549289246 -94.53810489587697 1.7655625192200634e-31 -6.3611093629270335e-15 3.1805546814635168e-15 -1.9836528997759395 -14.43491657521197 -20.972498776762137 -18.070129090061464 40.13753330577031 58.67029753915709 0.0 0.0 0.0 1.7655625192200634e-31 -6.3611093629270335e-15 3.1805546814635168e-15 0.006009015791905409 0.6895073356970873 1.4184275720300958 5.931665482890827 -5.108171708912792e-06 2.3465709408728611e-07 6.3611093629270335e-15 -6.3611093629270335e-15 3.531125038440127e-31 -21.292755604711317 -35.89986482328633 29.186559745433563 -90.37738125816433 2.158701738976231e-06 -1.1654366987325662e-06 -3.1805546814635168e-15 8.827812596100317e-32 -3.1805546814635168e-15 6.3611093629270335e-15 -6.3611093629270335e-15 3.531125038440127e-31 -11.967294948231087 16.13631800147344 10.102543046877322 6.3611093629270335e-15 -6.3611093629270335e-15 3.531125038440127e-31 25.78584496850057 -20.81853196881388 -35.74029096514119 139.4181328393009 3.0957834297730324e-07 1.1034335043205057e-06 -3.975693351829397e-15 -5.517382872562698e-32 1.5902773407317588e-15 1.7655625192200634e-31 -6.3611093629270335e-15 3.1805546814635168e-15 1.855754690789469 -2.4599096282759385 11.168028977502265 6.107631009992895 27.810439338232733 -31.97346725597549 -7.95138670365879e-15 4.413906298050159e-31 -6.361109362927033e-15
-0.17015112936496735 0.04745768383145332 -0.0016621872782707214 83.34707407646226 -25.910325559455533 -93.98054010224403 6.3611093629270335e-15 1.7655625192200634e-31 3.1805546814635168e-15 -2.2926082176005322 -14.1811685942015 -22.145895151339424 -18.522613651077105 40.478026693806704 58.42729326928292 0.0 0.0 -3.1805546814635168e-15 6.3611093629270335e-15 1.7655625192200634e-31 3.1805546814635168e-15 0.015551630799900249 0.7434131716816211 1.3698347318416424 3.9778374462176203 4.368138591491236e-06 1.0769364734544297e-06 0.0 0.0 -3.1805546814635168e-15 -24.520694281810517 -31.91882462400831 24.121993660242644 -87.81056890436362 -1.0587283543632698e-06 -2.243063598180331e-06 9.931289170612858e-32 -7.156248033292912e-15 1.5902773407317582e-15 0.0 0.0 -3.1805546814635168e-15 -12.000095305784221 17.80271256201885 9.811869419235931 0.0 0.0 -3.1805546814635168e-15 33.115247951669595 -20.798591758033126 -32.07887890516092 137.89188206205694 8.672185744306318e-06 5.806356286030541e-06 -1.5902773407317584e-15 0.0 0.0 6.3611093629270335e-15 1.7655625192200634e-31 3.1805546814635168e-15 1.9144664987877182 -1.7183632061483984 10.9097646695998 6.2205939375037556 27.802051309900374 -31.68342795725344 -3.531125038440127e-31 6.3611093629270335e-15 6.3611093629270335e-15
-0.1679188460111618 0.04368072375655174 -0.0016425158828496933 83.28776130535903 -23.309417175905168 -93.22226129930438 3.1805546814635176e-15 -6.361109362927035e-15 -3.1805546814635176e-15 -2.227345937413664 -13.309489986677647 -23.681701147331776 -18.366277491440066 39.139053487381375 58.82654366978556 0.0 0.0 0.0 3.1805546814635176e-15 -6.361109362927035e-15 -3.1805546814635176e-15 0.024494042939001984 0.7996638862824155 1.1282445135394132 2.9530281907191935 2.958437426622788e-06 2.3195235846551164e-06 -3.1805546814635168e-15 -6.3611093629270335e-15 -1.7655625192200634e-31 -25.06183085654763 -29.563175919737038 21.06684023761672 -87.06452909502387 -2.1558743622011366e-07 -2.7377574579047655e-06 3.310429723537619e-32 7.951386703658791e-16 -4.770832022195274e-15 -3.1805546814635168e-15 -6.3611093629270335e-15 -1.7655625192200634e-31 -11.335145889047658 20.06929013287785 9.431971231107806 -3.1805546814635168e-15 -6.3611093629270335e-15 -1.7655625192200634e-31 39.14400778573568 -23.142864364828917 -29.288024422403335 134.67481188823396 2.5027354914469893e-06 6.575072297750483e-06 0.0 0.0 -1.5902773407317588e-15 3.1805546814635176e-15 -6.361109362927035e-15 -3.1805546814635176e-15 1.6803361872384552 -0.8197555803707469 10.352252309647232 5.84177965046146 26.80536616835874 -29.877623670090504 3.1805546814635168e-15 1.7655625192200634e-31 6.3611093629270335e-15
-0.16623422503471375 0.03800367936491966 -0.0016295104287564754 83.53543082595132 -18.803901856777543 -92.15755956230291 0.0 0.0 0.0 -1.8061138839384525 -12.810813468956363 -25.420676745633152 -17.916206700618996 37.33617295995758 59.512506774243185 6.361109362927033e-15 1.7655625192200634e-31 3.1805546814635164e-15 0.0 0.0 0.0 0.037301081484228345 0.9186016599054471 0.6913575148466492 2.682737452738772 -1.682674966962948e-06 1.3770097878830923e-07 6.361109362927035e-15 -3.531125038440127e-31 -6.361109362927035e-15 -23.10371361332183 -29.41612136242251 19.681873150314154 -88.36352459194869 7.552443928278484e-07 2.1986811232295464e-06 3.1805546814635164e-15 -6.361109362927033e-15 1.7655625192200634e-31 6.361109362927035e-15 -3.531125038440127e-31 -6.361109362927035e-15 -10.289577219433307 23.23448298756061 8.680094751742043 6.361109362927035e-15 -3.531125038440127e-31 -6.361109362927035e-15 42.35675018782897 -28.647592986460136 -29.570092171206696 130.33262370241076 6.392980547474355e-07 -3.3229140878583264e-06 -1.5902773407317584e-15 1.5902773407317584e-15 -3.1805546814635168e-15 0.0 0.0 0.0 1.0709983150997613 0.24137945426192892 9.243129959261076 4.867577834709333 24.613401699246765 -26.234807284708456 -3.1805546814635168e-15 -6.3611093629270335e-15 -6.3611093629270335e-15
